<svg xmlns="http://www.w3.org/2000/svg" enable-background="new 0 0 20 20" height="48px" viewBox="0 0 20 20" width="48px" fill="#FFFFFF"><g><rect fill="none" height="20" width="20" x="0" y="0"/></g><g><g><path d="M11.83,10C11.37,10,11,10.37,11,10.83c0,0.46,0.37,0.83,0.83,0.83c0.46,0,0.83-0.37,0.83-0.83 C12.67,10.37,12.29,10,11.83,10z"/><path d="M11.67,12.73c-0.36,0.36-1.13,0.49-1.67,0.49c-0.55,0-1.31-0.13-1.67-0.49c-0.08-0.08-0.22-0.08-0.31,0 c-0.08,0.08-0.08,0.22,0,0.31c0.57,0.57,1.66,0.61,1.98,0.61c0.32,0,1.41-0.04,1.98-0.61c0.08-0.08,0.08-0.22,0-0.31 C11.9,12.65,11.76,12.65,11.67,12.73z"/><path d="M9,10.83C9,10.37,8.63,10,8.17,10c-0.46,0-0.83,0.37-0.83,0.83c0,0.46,0.37,0.83,0.83,0.83C8.63,11.67,9,11.29,9,10.83z"/><path d="M10,2c-4.42,0-8,3.58-8,8s3.58,8,8,8s8-3.58,8-8S14.42,2,10,2z M14.64,11.07c0.02,0.12,0.03,0.23,0.03,0.35 c0,1.79-2.09,3.25-4.67,3.25s-4.67-1.46-4.67-3.25c0-0.12,0.01-0.24,0.03-0.35C4.95,10.88,4.67,10.47,4.67,10 c0-0.64,0.52-1.17,1.17-1.17c0.31,0,0.6,0.12,0.81,0.33C7.45,8.58,8.57,8.2,9.81,8.17l0.59-2.79c0.01-0.05,0.04-0.1,0.09-0.13 c0.05-0.03,0.1-0.04,0.16-0.03l1.94,0.41c0.14-0.27,0.42-0.47,0.74-0.47c0.46,0,0.83,0.37,0.83,0.83c0,0.46-0.37,0.83-0.83,0.83 c-0.45,0-0.81-0.35-0.83-0.79l-1.74-0.37l-0.53,2.5c1.22,0.04,2.32,0.41,3.12,0.99c0.21-0.2,0.49-0.33,0.81-0.33 c0.64,0,1.17,0.52,1.17,1.17C15.33,10.48,15.05,10.88,14.64,11.07z"/></g></g></svg>