<svg version="1.1" viewBox="0.0 0.0 100.0 100.0" fill="none" stroke="none" stroke-linecap="square" stroke-miterlimit="10" xmlns:xlink="http://www.w3.org/1999/xlink" xmlns="http://www.w3.org/2000/svg"><clipPath id="p.0"><path d="m0 0l100.0 0l0 100.0l-100.0 0l0 -100.0z" clip-rule="nonzero"/></clipPath><g clip-path="url(#p.0)"><path fill="#000000" fill-opacity="0.0" d="m0 0l100.0 0l0 100.0l-100.0 0z" fill-rule="evenodd"/><path fill="#000000" fill-opacity="0.0" d="m4.4409447 50.0l21.15748 -42.31494l48.803146 0l21.157478 42.31494l-21.157478 42.31494l-48.803146 0z" fill-rule="evenodd"/><path stroke="#00ffff" stroke-width="8.0" stroke-linejoin="round" stroke-linecap="butt" d="m4.4409447 50.0l21.15748 -42.31494l48.803146 0l21.157478 42.31494l-21.157478 42.31494l-48.803146 0z" fill-rule="evenodd"/><path fill="#000000" fill-opacity="0.0" d="m25.03937 7.984252l74.96063 0l0 84.031494l-74.96063 0z" fill-rule="evenodd"/><path fill="#ffffff" d="m64.63312 34.387375l-12.187496 0l0 33.796875l-4.96875 0l0 -33.796875l-12.15625 0l0 -4.109377l29.312496 0l0 4.109377z" fill-rule="nonzero"/></g></svg>