<svg version="1.1" viewBox="0.0 0.0 100.0 100.0" fill="none" stroke="none" stroke-linecap="square" stroke-miterlimit="10" xmlns:xlink="http://www.w3.org/1999/xlink" xmlns="http://www.w3.org/2000/svg"><clipPath id="p.0"><path d="m0 0l100.0 0l0 100.0l-100.0 0l0 -100.0z" clip-rule="nonzero"/></clipPath><g clip-path="url(#p.0)"><path fill="#000000" fill-opacity="0.0" d="m0 0l100.0 0l0 100.0l-100.0 0z" fill-rule="evenodd"/><path fill="#000000" fill-opacity="0.0" d="m52.559055 4.2992125l38.818882 19.40945l0 52.582672l-38.818882 19.409454l-38.81888 -19.409454l0 -52.582672z" fill-rule="evenodd"/><path stroke="#00ffff" stroke-width="8.0" stroke-linejoin="round" stroke-linecap="butt" d="m52.559055 4.2992125l38.818882 19.40945l0 52.582672l-38.818882 19.409454l-38.81888 -19.409454l0 -52.582672z" fill-rule="evenodd"/><path fill="#000000" fill-opacity="0.0" d="m25.590551 29.795275l77.637794 0l0 40.409454l-77.637794 0z" fill-rule="evenodd"/><path fill="#ffffff" d="m35.9343 55.435276l0 -12.40625l4.265625 0q1.453125 0 2.203125 0.1875q1.078125 0.234375 1.828125 0.875q0.984375 0.828125 1.46875 2.125q0.484375 1.296875 0.484375 2.953125q0 1.40625 -0.328125 2.5q-0.328125 1.09375 -0.84375 1.8125q-0.515625 0.703125 -1.140625 1.125q-0.609375 0.40625 -1.484375 0.625q-0.859375 0.203125 -1.984375 0.203125l-4.46875 0zm1.640625 -1.46875l2.640625 0q1.234375 0 1.921875 -0.21875q0.703125 -0.234375 1.125 -0.640625q0.578125 -0.59375 0.90625 -1.578125q0.328125 -0.984375 0.328125 -2.390625q0 -1.9375 -0.640625 -2.984375q-0.640625 -1.046875 -1.5625 -1.40625q-0.65625 -0.25 -2.125 -0.25l-2.59375 0l0 9.46875zm10.904449 1.46875l0 -12.40625l8.96875 0l0 1.46875l-7.328125 0l0 3.796875l6.859375 0l0 1.453125l-6.859375 0l0 4.21875l7.609375 0l0 1.46875l-9.25 0zm15.057724 0l-4.796875 -12.40625l1.78125 0l3.21875 9.015625q0.3906288 1.078125 0.6562538 2.03125q0.28125 -1.015625 0.65625 -2.03125l3.359375 -9.015625l1.671875 0l-4.859375 12.40625l-1.6875038 0z" fill-rule="nonzero"/></g></svg>