<svg
  version="1.1"
  viewBox="0.0 0.0 350.9790026246719 57.61"
  fill="none"
  stroke="none"
  stroke-linecap="square"
  stroke-miterlimit="10"
  xmlns:xlink="http://www.w3.org/1999/xlink"
  xmlns="http://www.w3.org/2000/svg"
>
  <clipPath id="p.0">
    <path
      d="m0 0l350.979 0l0 57.60105l-350.979 0l0 -57.60105z"
      clip-rule="nonzero"
    />
  </clipPath>
  <g clip-path="url(#p.0)">
    <path
      fill="#000000"
      fill-opacity="0.0"
      d="m0 0l350.979 0l0 57.60105l-350.979 0z"
      fill-rule="evenodd"
    />
    <path
      fill="#000000"
      fill-opacity="0.0"
      d="m-9.181103 -19.223886l725.2598 0l0 100.18897l-725.2598 0z"
      fill-rule="evenodd"
    />
    <path
      fill="#8c66ff"
      d="m38.568897 13.6511135l-13.265625 0q-0.078125 1.78125 -0.078125 5.671875q0 3.875 0 9.34375q0 3.999998 0 7.234373q0 3.21875 0.03125 6.015625q0.046875 2.796875 0.078125 5.328125q0.03125 2.53125 0.125 6.53125l-12.203125 0q0.09375 -4.625 0.1875 -7.046875q0.109375 -2.4375 0.171875 -5.0625q0.0625 -2.625 0.125 -6.015625q0.078125 -3.390625 0.078125 -8.515623q0 -3.734375 0 -7.375q0 -3.65625 -0.09375 -6.109375l-13.234375 0l0 -9.28125l38.078125 0l0 9.28125zm14.0516205 4.046875q-0.390625 3.046875 -0.5 4.40625q-0.09375 1.359375 -0.125 3.046875q-0.03125 1.671875 -0.0625 3.90625q-0.03125 2.234375 -0.03125 5.281248q0 3.0625 0 5.53125q0 2.453125 0.03125 4.59375q0.03125 2.125 0.0625 4.015625q0.03125 1.890625 0.140625 5.296875l-11.84375 0q0.125 -3.90625 0.21875 -5.765625q0.09375 -1.875 0.15625 -3.953125q0.078125 -2.09375 0.140625 -4.71875q0.078125 -2.625 0.078125 -6.53125q0 -3.593748 -0.078125 -6.734373q-0.0625 -3.15625 -0.34375 -8.375l12.15625 0zm-12.28125 -9.484375q0 -2.4218755 1.6875 -4.2031255q1.703125 -1.78125 4.5625 -1.78125q2.421875 0 4.296875 1.484375q1.875 1.484375 1.875 4.09375q0 2.4531255 -1.78125 4.1250005q-1.78125 1.65625 -4.59375 1.65625q-2.40625 0 -4.234375 -1.375q-1.8125 -1.390625 -1.8125 -4.0zm56.086964 46.546875q-0.875 -2.84375 -0.984375 -4.75q-0.109375 -1.90625 -0.109375 -3.28125q0 -1.890625 0.09375 -3.875q0.109375 -2.0 0.203125 -3.828125q0.109375 -1.828125 0.203125 -3.4375q0.109375 -1.625 0.109375 -2.78125q0 -3.421873 -0.9375 -4.453123q-0.921875 -1.046875 -2.625 -1.046875q-1.484375 0 -2.6875 0.46875q-1.1875 0.453125 -1.5 0.671875q0.09375 0.578125 0.09375 2.21875q0 0.953125 -0.03125 2.765623q-0.03125 1.796875 -0.109375 3.84375q-0.0625 2.03125 -0.09375 3.890625q-0.03125 1.84375 -0.03125 2.828125q0 2.109375 0.234375 3.96875q0.25 1.84375 1.921875 4.65625l-12.5625 2.140625q-0.859375 -2.84375 -0.96875 -4.75q-0.109375 -1.90625 -0.109375 -3.28125q0 -1.890625 0.09375 -3.875q0.109375 -2.0 0.203125 -3.828125q0.109375 -1.828125 0.203125 -3.4375q0.109375 -1.625 0.109375 -2.78125q0 -3.421873 -0.9375 -4.453123q-0.921875 -1.046875 -2.625 -1.046875q-1.46875 0 -2.703125 0.5q-1.234375 0.484375 -1.578125 0.71875q0.0625 0.59375 0.0625 2.171875q0 1.5781231 0 3.640623q0 3.0625 0 5.53125q0 2.453125 0.03125 4.59375q0.03125 2.125 0.0625 4.015625q0.03125 1.890625 0.140625 5.296875l-11.921879 0q0.140625 -3.03125 0.203125 -5.015625q0.0625 -2.0 0.15625 -4.234375q0.109375 -2.234375 0.171875 -4.578125q0.0625 -2.359375 0.0625 -4.546875q0 -2.53125 -0.125 -4.062498q-0.125 -1.53125 -0.46875 -2.59375q-0.34375 -1.078125 -0.953125 -2.0q-0.59375 -0.9375 -2.515625 -3.375l10.140629 -7.015625q2.140625 3.140625 2.984375 4.671875q0.859375 1.53125 0.390625 1.96875q-0.375 -0.421875 0.875 -1.59375q1.25 -1.1875 2.6875 -2.203125q1.453125 -1.03125 3.171875 -1.65625q1.734375 -0.640625 3.71875 -0.640625q2.875 0 5.453125 1.640625q2.59375 1.640625 2.875 4.421875q-0.359375 -0.390625 0.890625 -1.5625q1.25 -1.1875 2.6875 -2.203125q1.453125 -1.03125 3.171875 -1.65625q1.734375 -0.640625 3.71875 -0.640625q1.921875 0 3.765625 0.71875q1.859375 0.703125 3.265625 2.34375q1.40625 1.640625 2.203125 4.28125q0.8125 2.625 0.8125 6.421875q0 0.953125 -0.03125 2.765623q-0.03125 1.796875 -0.109375 3.84375q-0.0625 2.03125 -0.09375 3.890625q-0.03125 1.84375 -0.03125 2.828125q0 2.109375 0.234375 3.96875q0.25 1.84375 1.921875 4.65625l-12.484375 2.140625zm25.217545 -36.453125q3.40625 -0.1875 4.515625 -0.6875q1.125 -0.515625 1.8437424 -1.5q0.71875 -1.0 1.28125 -2.859375q0.5625 -1.859375 1.3125 -5.4062505l9.078125 -2.65625q-0.9375 5.7968755 -1.28125 8.578125q-0.328125 2.78125 -0.4375 3.921875l7.21875 0l-0.921875 8.515625l-6.859375 -0.46875q-0.171875 2.59375 -0.28125 5.9375q-0.09375 3.343748 -0.09375 5.718748q0 2.671875 0.140625 4.171875q0.15625 1.5 0.390625 2.0625q0.234375 0.546875 0.484375 0.671875q0.25 0.125 0.9375 0.125q1.125 0 2.203125 -0.3125q1.09375 -0.3125 4.3125 -2.265625l-1.515625 10.484375q-2.328125 1.28125 -3.90625 1.75q-1.5625 0.484375 -3.6875 0.484375q-2.46875 0 -4.453125 -0.796875q-1.96875 -0.78125 -3.265625 -2.625q-1.2968674 -1.859375 -1.8749924 -4.5625q-0.578125 -2.71875 -0.578125 -6.453125q0 -3.046875 0.296875 -7.390625q0.296875 -4.359373 0.53125 -7.562498l-4.625 0l-0.765625 -6.875zm38.152687 -18.71875q-0.3125 3.78125 -0.421875 6.046875q-0.09375 2.265625 -0.125 5.0000005q-0.03125 2.71875 -0.078125 5.984375q-0.03125 3.265625 -0.828125 5.921875q-0.53125 -0.609375 0.75 -1.703125q1.28125 -1.09375 2.765625 -1.953125q1.484375 -0.875 3.1875 -1.421875q1.703125 -0.5625 3.59375 -0.5625q1.90625 0 3.75 0.71875q1.859375 0.703125 3.265625 2.34375q1.40625 1.640625 2.203125 4.28125q0.8125 2.625 0.8125 6.421875q0 0.953125 -0.03125 2.765623q-0.03125 1.796875 -0.109375 3.84375q-0.0625 2.03125 -0.09375 3.890625q-0.03125 1.84375 -0.03125 2.828125q0 2.09375 0.28125 3.96875q0.28125 1.859375 1.78125 4.671875l-12.34375 2.125q-0.84375 -2.859375 -0.953125 -4.75q-0.109375 -1.90625 -0.109375 -3.28125q0 -1.890625 0.09375 -3.875q0.109375 -2.0 0.203125 -3.828125q0.09375 -1.828125 0.1875 -3.4375q0.109375 -1.625 0.109375 -2.78125q0 -3.406248 -0.953125 -4.453123q-0.9375 -1.046875 -2.671875 -1.046875q-1.65625 0 -3.015625 0.546875q-1.359375 0.546875 -1.875 0.953125q0 3.265623 0 6.531248q0 3.25 0.03125 6.15625q0.046875 2.890625 0.078125 5.546875q0.03125 2.65625 0.125 6.734375l-11.8125 0q0.09375 -4.875 0.1875 -7.546875q0.109375 -2.671875 0.171875 -5.5625q0.078125 -2.890625 0.140625 -6.578125q0.0625 -3.703123 0.0625 -9.281248q0 -5.671875 -0.0625 -11.34375q-0.0625 -5.6875005 -0.3125 -13.0l12.046875 -0.875zm33.371582 39.125q0.203125 3.140625 1.578125 4.765625q1.390625 1.609375 4.28125 1.609375q2.453125 0 4.671875 -0.75q2.234375 -0.75 5.640625 -2.25l0 8.25q-2.859375 2.578125 -6.3125 3.40625q-3.4375 0.828125 -6.59375 0.828125q-2.640625 0 -5.28125 -0.671875q-2.640625 -0.65625 -4.796875 -2.5625q-2.140625 -1.921875 -3.421875 -5.234375q-1.28125 -3.3125 -1.28125 -8.5q0 -5.078125 1.28125 -8.953123q1.28125 -3.875 3.578125 -6.5q2.296875 -2.625 5.390625 -3.9375q3.109375 -1.3125 6.734375 -1.3125q3.734375 0 6.1875 1.328125q2.46875 1.328125 3.875 3.375q1.421875 2.046875 1.890625 4.453125q0.484375 2.40625 0.484375 4.609375q0 2.265623 -0.328125 4.140623q-0.328125 1.875 -1.234375 3.90625l-16.34375 0zm4.265625 -14.203123q-1.859375 0 -2.984375 1.765625q-1.125 1.765625 -1.296875 4.75l9.28125 1.1093731q-1.109375 -0.046875 -1.078125 -0.4374981q0.03125 -0.40625 0.03125 -0.6875q0 -0.96875 -0.1875 -2.171875q-0.171875 -1.21875 -0.65625 -2.1875q-0.46875 -0.96875 -1.203125 -1.546875q-0.734375 -0.59375 -1.90625 -0.59375zm31.974258 -19.234375q3.859375 -0.765625 7.828125 -1.234375q3.96875 -0.46875 8.71875 -0.46875q5.5312653 0 9.89064 1.734375q4.3593903 1.734375 7.4375153 4.9531255q3.078125 3.21875 4.65625 7.734375q1.59375 4.515625 1.59375 9.9375q0 5.718748 -1.796875 10.593748q-1.78125 4.875 -5.078125 8.453125q-3.296875 3.5625 -7.8906403 5.578125q-4.59375 2.015625 -10.218765 2.015625q-4.640625 0 -8.25 -0.234375q-3.609375 -0.234375 -7.0625 -0.75q0.078125 -4.4375 0.171875 -6.859375q0.109375 -2.4375 0.171875 -5.0625q0.0625 -2.625 0.125 -6.015625q0.078125 -3.390625 0.078125 -8.515623q0 -5.109375 -0.078125 -10.203125q-0.0625 -5.09375 -0.296875 -11.65625zm15.609375 7.0468755q-1.0 0 -2.21875 0.21875q-1.21875 0.203125 -1.515625 0.28125q-0.078125 2.15625 -0.078125 6.140625q0 3.96875 0 9.703125q0 5.937498 0 10.265623q0 4.328125 0.046875 7.265625q0.34375 0.15625 1.703125 0.15625q3.171875 0 5.8593903 -0.96875q2.6875 -0.96875 4.671875 -3.078125q2.0 -2.109375 3.1718903 -5.484375q1.1875 -3.390625 1.1875 -8.343748q0 -4.890625 -0.90625 -8.0q-0.890625 -3.125 -2.5312653 -4.890625q-1.625 -1.78125 -3.984375 -2.515625q-2.359375 -0.75 -5.4062653 -0.75zm38.07016 26.390623q0.203125 3.140625 1.578125 4.765625q1.390625 1.609375 4.28125 1.609375q2.453125 0 4.671875 -0.75q2.234375 -0.75 5.640625 -2.25l0 8.25q-2.859375 2.578125 -6.3125 3.40625q-3.4375 0.828125 -6.59375 0.828125q-2.640625 0 -5.28125 -0.671875q-2.640625 -0.65625 -4.796875 -2.5625q-2.140625 -1.921875 -3.421875 -5.234375q-1.28125 -3.3125 -1.28125 -8.5q0 -5.078125 1.28125 -8.953123q1.28125 -3.875 3.578125 -6.5q2.296875 -2.625 5.390625 -3.9375q3.109375 -1.3125 6.734375 -1.3125q3.734375 0 6.1875 1.328125q2.46875 1.328125 3.875 3.375q1.421875 2.046875 1.890625 4.453125q0.484375 2.40625 0.484375 4.609375q0 2.265623 -0.328125 4.140623q-0.328125 1.875 -1.234375 3.90625l-16.34375 0zm4.265625 -14.203123q-1.859375 0 -2.984375 1.765625q-1.125 1.765625 -1.296875 4.75l9.28125 1.1093731q-1.109375 -0.046875 -1.078125 -0.4374981q0.03125 -0.40625 0.03125 -0.6875q0 -0.96875 -0.1875 -2.171875q-0.171875 -1.21875 -0.65625 -2.1875q-0.46875 -0.96875 -1.203125 -1.546875q-0.734375 -0.59375 -1.90625 -0.59375zm48.626465 -7.78125q-3.0625 11.421875 -6.078125 19.703123q-3.015625 8.28125 -7.015625 17.265625l-9.875 0.96875q-3.875 -9.171875 -6.734375 -17.453125q-2.84375 -8.281248 -5.640625 -19.359373l11.421875 -1.0625q1.625 8.03125 3.3125 14.65625q1.6875 6.624998 2.578125 9.265623q0.953125 -2.609375 2.84375 -8.859373q1.890625 -6.265625 3.625 -14.0625l11.5625 -1.0625z"
      fill-rule="nonzero"
    />
  </g>
</svg>
