<svg version="1.1" viewBox="0.0 0.0 348.3937007874016 100.81889763779527" fill="none" stroke="none" stroke-linecap="square" stroke-miterlimit="10" xmlns:xlink="http://www.w3.org/1999/xlink" xmlns="http://www.w3.org/2000/svg"><clipPath id="p.0"><path d="m0 0l348.3937 0l0 100.8189l-348.3937 0l0 -100.8189z" clip-rule="nonzero"/></clipPath><g clip-path="url(#p.0)"><path fill="#000000" fill-opacity="0.0" d="m0 0l348.3937 0l0 100.8189l-348.3937 0z" fill-rule="evenodd"/><path fill="#000000" fill-opacity="0.0" d="m-9.84252 0l725.2598 0l0 100.18898l-725.2598 0z" fill-rule="evenodd"/><path fill="#3500d3" d="m55.219982 17.671875q2.0625 0.40625 3.09375 1.40625q1.03125 1.0 1.03125 2.328125q0 2.203125 -1.234375 3.203125q-1.234375 1.0 -3.890625 0.796875q-6.0 -0.46875 -9.375 -0.625q-3.359375 -0.171875 -8.828125 -0.234375q-2.46875 12.265625 -4.531252 24.65625q-0.734375 4.53125 -1.53125 10.5q-0.796875 5.96875 -1.0625 9.625q-0.140625 1.9375 -1.609375 2.96875q-1.46875 1.03125 -3.53125 1.03125q-2.203125 0 -3.40625 -1.0625q-1.1875 -1.0625 -1.1875 -2.796875q0 -1.59375 0.5 -5.296875q0.5 -3.703125 1.15625 -7.765625q0.734375 -4.0625 1.140625 -7.0625q0.734375 -5.078125 1.65625 -10.078125q0.9375 -5.0 1.875 -9.453125q0.203125 -1.0 0.46875 -2.296875q0.265625 -1.3125 0.59375 -2.90625q-6.53125 0.203125 -10.265625 1.078125q-3.734375 0.859375 -5.296875 2.421875q-1.5625 1.5625 -1.5625 4.03125q0 2.265625 1.328125 4.328125q0.265625 0.46875 0.265625 1.0q0 1.265625 -1.5 2.375q-1.5 1.09375 -3.09375 1.09375q-1.140625 0 -1.859375 -0.671875q-1.34375 -1.125 -2.21875 -3.21875q-0.8593749 -2.109375 -0.8593749 -4.78125q0 -5.65625 3.703125 -9.09375q3.703125 -3.4375 11.265625 -5.03125q7.5625 -1.59375 19.437502 -1.59375q7.328125 0 11.6875 0.265625q4.375 0.265625 7.640625 0.859375zm0.33447266 19.859375q-2.8125 0 -4.21875 -1.296875q-1.390625 -1.296875 -1.390625 -3.625q0 -2.34375 1.828125 -3.90625q1.84375 -1.5625 4.578125 -1.5625q2.46875 0 4.0 1.203125q1.53125 1.203125 1.53125 3.390625q0 2.671875 -1.734375 4.234375q-1.734375 1.5625 -4.59375 1.5625zm-0.546875 35.796875q-4.328125 0 -6.296875 -3.0625q-1.953125 -3.0625 -1.953125 -8.125q0 -3.0 0.765625 -7.703125q0.765625 -4.703125 1.953125 -8.765625q0.609375 -2.140625 1.609375 -2.9375q1.0 -0.796875 3.203125 -0.796875q3.390625 0 3.390625 2.265625q0 1.671875 -1.265625 7.734375q-1.59375 7.328125 -1.59375 9.9375q0 2.0 0.53125 3.0625q0.53125 1.0625 1.796875 1.0625q1.203125 0 3.0 -1.65625q1.796875 -1.671875 4.796871 -5.28125q0.796875 -0.921875 1.796875 -0.921875q0.875 0 1.375 0.796875q0.5 0.796875 0.5 2.203125q0 2.65625 -1.265625 4.125q-6.609371 8.0625 -12.343746 8.0625zm12.944332 0q-2.53125 0 -3.578125 -2.65625q-1.0312462 -2.671875 -1.0312462 -8.53125q0 -8.671875 2.4687462 -16.46875q0.609375 -1.9375 1.96875 -2.828125q1.359375 -0.90625 3.828125 -0.90625q1.34375 0 1.875 0.34375q0.53125 0.328125 0.53125 1.25q0 1.078125 -1.0 4.8125q-0.671875 2.65625 -1.078125 4.625q-0.390625 1.96875 -0.65625 4.90625q1.796875 -5.203125 4.296875 -8.796875q2.5 -3.609375 5.125 -5.375q2.640625 -1.765625 4.96875 -1.765625q2.34375 0 3.296875 1.078125q0.96875 1.0625 0.96875 3.25q0 2.140625 -1.265625 7.734375q-0.53125 2.40625 -0.734375 3.609375q2.203125 -5.609375 4.90625 -9.140625q2.703125 -3.53125 5.296875 -5.03125q2.609375 -1.5 4.796875 -1.5q2.140625 0 3.234375 1.109375q1.109375 1.09375 1.109375 3.21875q0 1.734375 -0.734375 6.53125q-0.671875 4.078125 -1.078125 7.71875q-0.390625 3.625 -0.390625 8.078125q0 2.546875 -1.03125 3.640625q-1.03125 1.09375 -3.375 1.09375q-2.203125 0 -3.203125 -1.125q-0.984375 -1.140625 -0.984375 -3.40625q0 -2.65625 0.921875 -8.796875q0.796875 -5.328125 0.796875 -6.796875q0 -1.0625 -0.734375 -1.0625q-0.859375 0 -2.46875 2.234375q-1.59375 2.234375 -3.1875 5.90625q-1.59375 3.65625 -2.59375 7.71875q-0.734375 3.203125 -1.703125 4.265625q-0.96875 1.0625 -3.109375 1.0625q-2.1875 0 -3.296875 -2.09375q-1.09375 -2.09375 -1.09375 -5.09375q0 -2.546875 0.65625 -7.34375q0.546875 -4.265625 0.546875 -5.59375q0 -1.0625 -0.734375 -1.0625q-1.0 0 -2.546875 2.40625q-1.53125 2.390625 -2.96875 6.125q-1.421875 3.734375 -2.28125 7.328125q-0.734375 3.140625 -1.703125 4.234375q-0.96875 1.09375 -3.03125 1.09375zm91.44077 -15.1875q0.875 0 1.375 0.796875q0.5 0.796875 0.5 2.203125q0 2.65625 -1.265625 4.125q-2.875 3.53125 -6.28125 5.796875q-3.390625 2.265625 -7.78125 2.265625q-13.609375 0 -13.609375 -19.125q0 -2.9375 0.203125 -5.9375l-2.59375 0q-2.0000076 0 -2.7031326 -0.734375q-0.703125 -0.734375 -0.703125 -2.328125q0 -3.734375 3.0000076 -3.734375l3.796875 0q1.140625 -7.328125 3.46875 -13.390625q2.34375 -6.0625 5.640625 -9.65625q3.296875 -3.609375 7.09375 -3.609375q2.796875 0 4.390625 2.46875q1.609375 2.453125 1.609375 6.1875q0 10.34375 -8.671875 18.0l7.46875 0q1.0625 0 1.53125 0.46875q0.46875 0.46875 0.46875 1.734375q0 4.59375 -7.53125 4.59375l-8.125 0q-0.140625 3.34375 -0.140625 5.203125q0 6.9375 1.625 9.734375q1.640625 2.796875 5.171875 2.796875q2.875 0 5.0625 -1.734375q2.203125 -1.734375 5.203125 -5.203125q0.796875 -0.921875 1.796875 -0.921875zm-11.65625 -36.9375q-1.0 0 -2.234375 2.5q-1.234375 2.5 -2.34375 6.9375q-1.09375 4.4375 -1.828125 9.828125q3.9375 -3.390625 5.90625 -7.625q1.96875 -4.234375 1.96875 -7.703125q0 -3.9375 -1.46875 -3.9375zm45.11783 36.9375q0.875 0 1.375 0.796875q0.5 0.796875 0.5 2.203125q0 2.65625 -1.265625 4.125q-3.0625 3.53125 -6.296875 5.796875q-3.234375 2.265625 -7.375 2.265625q-3.390625 0 -5.125 -1.953125q-1.734375 -1.96875 -1.734375 -5.703125q0 -1.875 0.9375 -6.671875q0.859375 -4.203125 0.859375 -5.796875q0 -1.0625 -0.734375 -1.0625q-0.859375 0 -2.46875 2.234375q-1.59375 2.234375 -3.203125 5.90625q-1.59375 3.65625 -2.59375 7.71875q-1.265625 5.328125 -6.265625 5.328125q-2.0 0 -2.640625 -1.421875q-0.625 -1.4375 -0.625 -5.171875q0 -2.140625 0.0625 -3.40625l0.078125 -5.328125q0 -10.265625 2.09375 -21.390625q2.09375 -11.140625 6.1875 -18.703125q4.109375 -7.5625 9.84375 -7.5625q3.0625 0 4.953125 2.640625q1.90625 2.625 1.90625 6.828125q0 6.734375 -3.9375 13.96875q-3.921875 7.21875 -12.78125 16.890625q-0.203125 3.46875 -0.203125 7.125q2.203125 -5.65625 4.890625 -9.21875q2.703125 -3.578125 5.328125 -5.109375q2.640625 -1.53125 4.84375 -1.53125q4.328125 0 4.328125 4.328125q0 2.609375 -1.46875 9.40625q-1.265625 5.796875 -1.265625 7.65625q0 2.671875 1.9375 2.671875q1.328125 0 3.15625 -1.625q1.84375 -1.640625 4.90625 -5.3125q0.796875 -0.921875 1.796875 -0.921875zm-19.796875 -41.203125q-1.1875 0 -2.65625 3.4375q-1.46875 3.4375 -2.84375 9.265625q-1.359375 5.828125 -2.21875 12.703125q4.125 -4.875 6.828125 -10.609375q2.703125 -5.734375 2.703125 -10.390625q0 -2.140625 -0.46875 -3.265625q-0.46875 -1.140625 -1.34375 -1.140625zm40.13336 43.203125q0.859375 0 1.359375 0.796875q0.5 0.796875 0.5 2.203125q0 2.390625 -1.125 4.125q-1.875 2.875 -4.90625 4.46875q-3.03125 1.59375 -7.21875 1.59375q-6.40625 0 -9.9375 -3.828125q-3.53125 -3.828125 -3.53125 -10.359375q0 -4.609375 1.921875 -8.5625q1.9375 -3.96875 5.375 -6.296875q3.4375 -2.34375 7.765625 -2.34375q3.859375 0 6.1875 2.296875q2.34375 2.296875 2.34375 6.234375q0 4.59375 -3.296875 7.90625q-3.296875 3.296875 -11.234375 5.21875q1.59375 3.078125 5.40625 3.078125q2.71875 0 4.484375 -1.265625q1.78125 -1.265625 4.109375 -4.265625q0.796875 -1.0 1.796875 -1.0zm-10.9375 -11.671875q-2.453125 0 -4.15625 2.875q-1.703125 2.859375 -1.703125 6.921875l0 0.140625q3.9375 -0.9375 6.203125 -2.796875q2.265625 -1.875 2.265625 -4.34375q0 -1.265625 -0.703125 -2.03125q-0.703125 -0.765625 -1.90625 -0.765625zm49.465942 24.859375q-3.859375 0 -8.73436 -0.65625q-2.671875 -0.34375 -3.671875 -1.40625q-1.0 -1.0625 -0.859375 -3.46875q0.46875 -6.59375 2.203125 -16.28125q1.734375 -9.703125 4.203125 -18.703125q0.453125 -1.671875 1.8593597 -2.328125q1.40625 -0.671875 3.671875 -0.671875q4.0625 0 4.0625 2.265625q0 0.921875 -0.40625 2.125q-1.734375 5.328125 -3.46875 14.296875q-1.734375 8.96875 -2.453125 17.09375q2.0 0.203125 4.53125 0.203125q11.656235 0 17.42186 -7.0625q5.765625 -7.0625 5.765625 -18.859375q0 -7.9375 -4.53125 -12.265625q-4.53125 -4.328125 -12.796875 -4.328125q-5.3281097 0 -10.562485 1.671875q-5.2343597 1.65625 -9.437485 4.390625q-0.859375 0.59375 -1.859375 0.59375q-1.140625 0 -1.8125 -0.96875q-0.65625 -0.96875 -0.65625 -2.359375q0 -1.609375 0.53125 -2.640625q0.53125 -1.03125 1.796875 -1.890625q4.609375 -3.140625 10.79686 -4.765625q6.203125 -1.640625 11.937485 -1.640625q8.125 0 14.0625 2.84375q5.9375 2.828125 9.125 8.296875q3.203125 5.453125 3.203125 13.1875q0 10.0625 -4.0 17.5625q-4.0 7.5 -11.671875 11.640625q-7.65625 4.125 -18.249985 4.125zm68.11534 -15.1875q0.875 0 1.375 0.796875q0.5 0.796875 0.5 2.203125q0 2.65625 -1.265625 4.125q-2.46875 3.0 -6.96875 5.53125q-4.5 2.53125 -9.625 2.53125q-7.0 0 -10.875 -3.796875q-3.859375 -3.796875 -3.859375 -10.390625q0 -4.609375 1.921875 -8.5625q1.9375 -3.96875 5.375 -6.296875q3.4375 -2.34375 7.765625 -2.34375q3.859375 0 6.1875 2.296875q2.34375 2.296875 2.34375 6.234375q0 4.59375 -3.296875 7.90625q-3.296875 3.296875 -11.171875 5.21875q1.671875 3.078125 6.328125 3.078125q3.0 0 6.828125 -2.09375q3.84375 -2.109375 6.640625 -5.515625q0.796875 -0.921875 1.796875 -0.921875zm-16.796875 -9.671875q-2.453125 0 -4.15625 2.875q-1.703125 2.859375 -1.703125 6.921875l0 0.140625q3.9375 -0.9375 6.203125 -2.796875q2.265625 -1.875 2.265625 -4.34375q0 -1.265625 -0.703125 -2.03125q-0.703125 -0.765625 -1.90625 -0.765625zm20.935547 24.859375q-2.796875 0 -4.40625 -2.09375q-1.59375 -2.09375 -2.0 -6.765625q-0.796875 -9.328125 -0.796875 -16.328125l0 -2.34375q0.078125 -2.1875 1.203125 -3.046875q1.140625 -0.875 3.40625 -0.875q1.734375 0 2.5625 0.765625q0.828125 0.765625 0.828125 2.5625q0 7.671875 0.9375 19.9375q2.859375 -4.9375 4.953125 -9.03125q2.109375 -4.109375 4.578125 -10.84375q0.734375 -2.0 1.921875 -2.6875q1.203125 -0.703125 3.015625 -0.703125q3.65625 0 3.65625 2.328125q0 0.796875 -0.53125 2.203125q-5.390625 12.59375 -10.203125 20.328125q-2.328125 3.796875 -4.46875 5.203125q-2.125 1.390625 -4.65625 1.390625z" fill-rule="nonzero"/></g></svg>