<?xml version="1.0" ?><svg
  style="enable-background: new 0 0 24 24"
  version="1.1"
  viewBox="0 0 24 24"
  xml:space="preserve"
  xmlns="http://www.w3.org/2000/svg"
  xmlns:xlink="http://www.w3.org/1999/xlink"
  fill="white"
>
  <g id="info" />
  <g id="icons">
    <path
      d="M20,3H4C1.8,3,0,4.8,0,7v10c0,2.2,1.8,4,4,4h16c2.2,0,4-1.8,4-4V7C24,4.8,22.2,3,20,3z M21.6,8.8l-7.9,5.3   c-0.5,0.3-1.1,0.5-1.7,0.5s-1.2-0.2-1.7-0.5L2.4,8.8C2,8.5,1.9,7.9,2.2,7.4C2.5,7,3.1,6.9,3.6,7.2l7.9,5.3c0.3,0.2,0.8,0.2,1.1,0   l7.9-5.3c0.5-0.3,1.1-0.2,1.4,0.3C22.1,7.9,22,8.5,21.6,8.8z"
      id="email"
    />
  </g>
</svg>
